<svg width="109" height="84" viewBox="0 0 109 84" fill="none" xmlns="http://www.w3.org/2000/svg">
    <path d="M33.211 54.7969C33.211 54.6157 33.4016 54.4688 33.6367 54.4688H74.086C74.3211 54.4688 74.5117 54.6157 74.5117 54.7969C74.5117 54.9781 74.3211 55.125 74.086 55.125H33.6367C33.4016 55.125 33.211 54.9781 33.211 54.7969Z" fill="black"/>
    <path fill-rule="evenodd" clip-rule="evenodd" d="M39.5977 22.3125C39.5977 21.7688 40.1696 21.3281 40.875 21.3281C41.5805 21.3281 42.1524 21.7688 42.1524 22.3125C42.1524 22.8562 41.5805 23.2969 40.875 23.2969C40.1696 23.2969 39.5977 22.8562 39.5977 22.3125ZM40.875 21.9844C40.6399 21.9844 40.4492 22.1313 40.4492 22.3125C40.4492 22.4937 40.6399 22.6406 40.875 22.6406C41.1102 22.6406 41.3008 22.4937 41.3008 22.3125C41.3008 22.1313 41.1102 21.9844 40.875 21.9844Z" fill="black"/>
    <path fill-rule="evenodd" clip-rule="evenodd" d="M40.875 27.2344C40.1696 27.2344 39.5977 27.6751 39.5977 28.2188C39.5977 28.7624 40.1696 29.2031 40.875 29.2031C41.5805 29.2031 42.1524 28.7624 42.1524 28.2188C42.1524 27.6751 41.5805 27.2344 40.875 27.2344ZM40.4492 28.2188C40.4492 28.0375 40.6399 27.8906 40.875 27.8906C41.1102 27.8906 41.3008 28.0375 41.3008 28.2188C41.3008 28.4 41.1102 28.5469 40.875 28.5469C40.6399 28.5469 40.4492 28.4 40.4492 28.2188Z" fill="black"/>
    <path fill-rule="evenodd" clip-rule="evenodd" d="M48.9649 22.3125C48.9649 21.7688 49.5368 21.3281 50.2422 21.3281C50.9477 21.3281 51.5196 21.7688 51.5196 22.3125C51.5196 22.8562 50.9477 23.2969 50.2422 23.2969C49.5368 23.2969 48.9649 22.8562 48.9649 22.3125ZM50.2422 21.9844C50.0071 21.9844 49.8164 22.1313 49.8164 22.3125C49.8164 22.4937 50.0071 22.6406 50.2422 22.6406C50.4774 22.6406 50.668 22.4937 50.668 22.3125C50.668 22.1313 50.4774 21.9844 50.2422 21.9844Z" fill="black"/>
    <path fill-rule="evenodd" clip-rule="evenodd" d="M50.2422 27.8906C49.5368 27.8906 48.9649 28.3313 48.9649 28.875C48.9649 29.4187 49.5368 29.8594 50.2422 29.8594C50.9477 29.8594 51.5196 29.4187 51.5196 28.875C51.5196 28.3313 50.9477 27.8906 50.2422 27.8906ZM49.8164 28.875C49.8164 28.6938 50.0071 28.5469 50.2422 28.5469C50.4774 28.5469 50.668 28.6938 50.668 28.875C50.668 29.0562 50.4774 29.2031 50.2422 29.2031C50.0071 29.2031 49.8164 29.0562 49.8164 28.875Z" fill="black"/>
    <path fill-rule="evenodd" clip-rule="evenodd" d="M57.4805 22.3125C57.4805 21.7688 58.0524 21.3281 58.7578 21.3281C59.4633 21.3281 60.0352 21.7688 60.0352 22.3125C60.0352 22.8562 59.4633 23.2969 58.7578 23.2969C58.0524 23.2969 57.4805 22.8562 57.4805 22.3125ZM58.7578 21.9844C58.5227 21.9844 58.3321 22.1313 58.3321 22.3125C58.3321 22.4937 58.5227 22.6406 58.7578 22.6406C58.993 22.6406 59.1836 22.4937 59.1836 22.3125C59.1836 22.1313 58.993 21.9844 58.7578 21.9844Z" fill="black"/>
    <path fill-rule="evenodd" clip-rule="evenodd" d="M58.7578 27.8906C58.0524 27.8906 57.4805 28.3313 57.4805 28.875C57.4805 29.4187 58.0524 29.8594 58.7578 29.8594C59.4633 29.8594 60.0352 29.4187 60.0352 28.875C60.0352 28.3313 59.4633 27.8906 58.7578 27.8906ZM58.3321 28.875C58.3321 28.6938 58.5227 28.5469 58.7578 28.5469C58.993 28.5469 59.1836 28.6938 59.1836 28.875C59.1836 29.0562 58.993 29.2031 58.7578 29.2031C58.5227 29.2031 58.3321 29.0562 58.3321 28.875Z" fill="black"/>
    <path fill-rule="evenodd" clip-rule="evenodd" d="M66.8477 22.3125C66.8477 21.7688 67.4196 21.3281 68.125 21.3281C68.8305 21.3281 69.4024 21.7688 69.4024 22.3125C69.4024 22.8562 68.8305 23.2969 68.125 23.2969C67.4196 23.2969 66.8477 22.8562 66.8477 22.3125ZM68.125 21.9844C67.8899 21.9844 67.6992 22.1313 67.6992 22.3125C67.6992 22.4937 67.8899 22.6406 68.125 22.6406C68.3602 22.6406 68.5508 22.4937 68.5508 22.3125C68.5508 22.1313 68.3602 21.9844 68.125 21.9844Z" fill="black"/>
    <path fill-rule="evenodd" clip-rule="evenodd" d="M68.125 27.2344C67.4196 27.2344 66.8477 27.6751 66.8477 28.2188C66.8477 28.7624 67.4196 29.2031 68.125 29.2031C68.8305 29.2031 69.4024 28.7624 69.4024 28.2188C69.4024 27.6751 68.8305 27.2344 68.125 27.2344ZM67.6992 28.2188C67.6992 28.0375 67.8899 27.8906 68.125 27.8906C68.3602 27.8906 68.5508 28.0375 68.5508 28.2188C68.5508 28.4 68.3602 28.5469 68.125 28.5469C67.8899 28.5469 67.6992 28.4 67.6992 28.2188Z" fill="black"/>
    <path fill-rule="evenodd" clip-rule="evenodd" d="M28.7959 15.4219C25.8063 15.4219 23.3569 17.2514 23.2635 19.5543L22.9997 26.0593C21.6149 26.1516 20.3236 26.5106 19.3669 26.953C18.2658 27.4621 17.0966 28.0903 16.4654 29.6379C15.8489 31.1495 15.7569 33.5096 16.6113 37.4602C18.3139 45.3331 20.0299 50.6747 25.2341 55.0194C27.3067 56.7479 30.3154 57.8824 33.5726 58.0551L31.0868 70.8263C31.0684 70.9208 31.1043 71.0167 31.1852 71.0891C31.2661 71.1615 31.3839 71.2031 31.5078 71.2031H34.4883C34.6763 71.2031 34.8421 71.1081 34.8961 70.9693L39.9145 58.0781H70.7887L75.807 70.9693C75.8611 71.1081 76.0268 71.2031 76.2149 71.2031H79.1953C79.3193 71.2031 79.4371 71.1615 79.518 71.0891C79.5988 71.0167 79.6348 70.9208 79.6164 70.8263L77.0966 57.8803C79.7003 57.4709 82.0528 56.4482 83.7659 55.0196C88.9728 50.6725 90.4946 45.3256 92.1956 37.4602C93.05 33.5096 92.9579 31.1495 92.3415 29.6379C91.7103 28.0903 90.5411 27.4621 89.44 26.953C88.9944 26.747 88.4762 26.559 87.9097 26.4076C87.7496 26.3553 87.5855 26.3094 87.4198 26.2668C87.3608 26.2517 87.3006 26.247 87.2425 26.2516C86.8434 26.1712 86.4272 26.1102 86.0009 26.074L85.7365 19.5543C85.6431 17.2514 83.1937 15.4219 80.204 15.4219H28.7959ZM39.0254 58.0781H34.4292L32.0023 70.5469H34.1715L39.0254 58.0781ZM74.5591 57.4219C77.9086 57.4219 81.046 56.3208 83.1403 54.5743C88.1522 50.3901 89.6504 45.2369 91.3556 37.3523C92.2044 33.428 92.0836 31.1943 91.5291 29.8347C91.0982 28.7781 90.3997 28.2335 89.6124 27.8149C89.7649 28.1907 89.8399 28.6465 89.8399 29.2031C89.8399 29.8147 89.5641 31.2213 89.1137 33.0282C88.6598 34.8492 88.0196 37.1105 87.2729 39.4533C85.7843 44.124 83.8577 49.1674 82.1257 51.67C82.0151 51.8299 81.7571 51.8904 81.5497 51.8051C81.3422 51.7199 81.2637 51.5211 81.3743 51.3612C83.0486 48.942 84.9541 43.9775 86.4459 39.2967C87.1895 36.9637 87.8266 34.7133 88.2775 32.9044C88.7318 31.0815 88.9883 29.74 88.9883 29.2031C88.9883 28.3169 88.7814 27.8251 88.4871 27.5206C88.272 27.298 87.9836 27.147 87.6005 27.0196C86.7063 26.7838 85.6804 26.649 84.6486 26.7051C83.0348 26.7929 81.4043 27.3461 80.208 28.7289C79.8336 29.1617 79.4527 29.8418 79.0827 30.6853C78.7152 31.523 78.3677 32.5 78.0516 33.5118C77.4195 35.5354 76.9182 37.6813 76.6356 39.0968C76.6261 39.1448 76.6034 39.1888 76.5709 39.2269L79.4366 40.7452C79.4714 40.7637 79.5016 40.7854 79.5269 40.8096C80.6065 41.3319 81.3242 42.2576 81.3242 43.3125V47.25C81.3242 48.881 79.6086 50.2031 77.4922 50.2031H75.3018C76.5829 51.136 78.2188 52.8798 78.7637 55.3992C78.8024 55.5779 78.6457 55.747 78.4137 55.7768C78.1818 55.8066 77.9624 55.6858 77.9237 55.5071C77.2845 52.5513 75.0447 50.7665 73.9598 50.2031H33.3371C32.2522 50.7665 30.0125 52.5513 29.3732 55.5071C29.3345 55.6858 29.1152 55.8066 28.8832 55.7768C28.6513 55.747 28.4946 55.5779 28.5332 55.3992C29.0781 52.8798 30.714 51.136 31.9951 50.2031H31.5078C29.3915 50.2031 27.6758 48.881 27.6758 47.25V43.3125C27.6758 42.2576 28.3936 41.3318 29.4733 40.8095C29.4986 40.7854 29.5287 40.7637 29.5635 40.7452L32.3345 39.2772C32.0446 37.8599 31.5098 35.7126 30.8526 33.6784C30.5124 32.6253 30.1407 31.6068 29.7549 30.7377C29.3662 29.8621 28.9733 29.1617 28.5989 28.7289C27.4026 27.3461 25.7721 26.7929 24.1582 26.7051C23.4003 26.6639 22.6455 26.7257 21.9438 26.8549C21.9149 26.869 21.8834 26.8807 21.8495 26.8894C21.233 27.0478 20.8052 27.2181 20.5129 27.5206C20.2186 27.8251 20.0117 28.3169 20.0117 29.2031C20.0117 29.74 20.2682 31.0815 20.7226 32.9044C21.1735 34.7133 21.8106 36.9637 22.5541 39.2967C24.046 43.9775 25.9515 48.942 27.6257 51.3612C27.7364 51.5211 27.6579 51.7199 27.4504 51.8051C27.2429 51.8904 26.985 51.8299 26.8743 51.67C25.1423 49.1674 23.2158 44.124 21.7272 39.4533C20.9805 37.1105 20.3402 34.8492 19.8863 33.0282C19.4359 31.2213 19.1602 29.8147 19.1602 29.2031C19.1602 28.582 19.2535 28.0865 19.4438 27.6875C18.556 28.1253 17.7537 28.6678 17.2778 29.8347C16.7233 31.1943 16.6025 33.428 17.4512 37.3523C19.1548 45.2294 20.8452 50.3878 25.8598 54.5743C27.9541 56.3208 31.0914 57.4219 34.4409 57.4219H74.5591ZM76.5317 70.5469L71.6778 58.0781H76.274L78.7009 70.5469H76.5317ZM30.4621 16.0781H28.7959C26.2662 16.0781 24.1936 17.6262 24.1146 19.5748L23.8526 26.0376C23.9742 26.0396 24.0961 26.0439 24.2182 26.0505C25.4051 26.1151 26.6075 26.404 27.6758 27.0192V19.5645C27.6758 18.114 28.5548 17.0645 29.801 16.3891C30.0119 16.2748 30.2331 16.1712 30.4621 16.0781ZM28.5274 27.6058V19.5645C28.5274 18.349 29.2477 17.4912 30.2909 16.9259C31.349 16.3524 32.7479 16.0781 34.06 16.0781H74.9375C76.2497 16.0781 77.6485 16.3524 78.7067 16.9259C79.7498 17.4912 80.4702 18.349 80.4702 19.5645L80.4726 27.4542C80.1266 27.7151 79.8001 28.0173 79.4995 28.3649C79.0612 28.8715 78.6519 29.6181 78.2759 30.4752C77.8974 31.338 77.5432 32.3354 77.2237 33.3582C76.6086 35.3271 76.1173 37.4061 75.8271 38.8328L73.06 37.3668C72.7051 37.1788 72.2846 37.0781 71.8539 37.0781H37.1462C36.7156 37.0781 36.295 37.1788 35.9401 37.3668L33.111 38.8657C32.8066 37.4398 32.2965 35.4313 31.6789 33.5198C31.3353 32.4562 30.957 31.4183 30.5606 30.5253C30.1671 29.6388 29.7456 28.8715 29.3074 28.3649C29.0633 28.0827 28.8022 27.8304 28.5274 27.6058ZM77.2052 40.3594L72.5776 37.9076C72.3646 37.7948 72.1123 37.7344 71.8539 37.7344H37.1462C36.8878 37.7344 36.6355 37.7948 36.4226 37.9076L31.795 40.3594H77.2052ZM77.4922 49.5469C79.1383 49.5469 80.4727 48.5185 80.4727 47.25V43.3125C80.4727 42.044 79.1383 41.0156 77.4922 41.0156H31.5078C29.8618 41.0156 28.5274 42.044 28.5274 43.3125V47.25C28.5274 48.5185 29.8618 49.5469 31.5078 49.5469H77.4922ZM81.324 26.9123C82.3431 26.3703 83.4727 26.1112 84.5887 26.0505C84.7755 26.0404 84.9619 26.0357 85.1473 26.0363L84.8853 19.5748C84.8063 17.6262 82.7338 16.0781 80.204 16.0781H78.5354C78.7644 16.1712 78.9856 16.2748 79.1966 16.3891C80.4427 17.0645 81.3217 18.114 81.3217 19.5645L81.324 26.9123Z" fill="black"/>
</svg>
