<svg width="53" height="42" viewBox="0 0 53 42" fill="none" xmlns="http://www.w3.org/2000/svg">
    <path d="M41.8009 22.0612H46.4532C47.173 22.0393 47.8903 22.1498 48.5623 22.3862C49.2344 22.6225 49.8475 22.9798 50.3651 23.4368C50.8826 23.8938 51.294 24.4412 51.5749 25.0463C51.8558 25.6515 52.0004 26.302 52 26.9592C52 28.3015 51.4156 29.5888 50.3753 30.538C49.3351 31.4872 47.9243 32.0204 46.4532 32.0204H6.3726C5.65236 32.0208 4.93945 31.8889 4.27624 31.6326C3.61303 31.3763 3.01309 31.0008 2.51222 30.5286C2.01135 30.0563 1.61975 29.4969 1.36075 28.8837C1.10176 28.2705 0.980663 27.616 1.00467 26.9592C0.979677 26.3098 1.10147 25.6627 1.36239 25.0582C1.62331 24.4536 2.01781 23.9045 2.52133 23.4451C3.02486 22.9856 3.62661 22.6257 4.28918 22.3876C4.95176 22.1495 5.66094 22.0384 6.3726 22.0612H22.1185M16.3928 8.34694L18.54 10.4694M35.7173 7.53061L38.0434 9.81632M24.9815 8.51021L27.4865 6.38776M6.19373 32.0204H46.6321V34.4694C46.6321 36.2014 45.878 37.8625 44.5358 39.0872C43.1935 40.312 41.373 41 39.4748 41H13.351C11.4528 41 9.63228 40.312 8.29003 39.0872C6.94779 37.8625 6.19373 36.2014 6.19373 34.4694V32.0204ZM52 18.7959C51.9866 19.6572 51.6007 20.4788 50.9265 21.0816C50.6128 21.4021 50.2259 21.6559 49.7931 21.8251C49.3603 21.9944 48.892 22.075 48.4214 22.0612H39.117L33.0334 28.4286L26.9497 22.0612H4.40444C3.94252 22.0618 3.48529 21.9765 3.06071 21.8105C2.63613 21.6445 2.25306 21.4013 1.93491 21.0957C1.61677 20.7901 1.37023 20.4286 1.2103 20.0332C1.05037 19.6378 0.980399 19.2168 1.00471 18.7959C0.980399 18.375 1.05037 17.954 1.2103 17.5586C1.37023 17.1632 1.61677 16.8017 1.93491 16.4961C2.25306 16.1906 2.63613 15.9473 3.06071 15.7813C3.48529 15.6153 3.94252 15.53 4.40444 15.5306H48.4214C49.3705 15.5306 50.2808 15.8746 50.9519 16.487C51.623 17.0994 52 17.9299 52 18.7959ZM21.5817 1H31.4229C35.5041 1 39.4181 2.47929 42.3039 5.11245C45.1898 7.74561 46.8111 11.317 46.8111 15.0408H6.19373C6.19373 11.317 7.81493 7.74561 10.7008 5.11245C13.5866 2.47929 17.5006 1 21.5817 1Z" stroke="black" stroke-width="2" stroke-linecap="round" stroke-linejoin="round"/>
</svg>
